<?xml version="1.0" encoding="UTF-8" standalone="no"?>
<!DOCTYPE svg PUBLIC "-//W3C//DTD SVG 1.1//EN" "http://www.w3.org/Graphics/SVG/1.1/DTD/svg11.dtd">
<svg xmlns="http://www.w3.org/2000/svg" version="1.1" viewBox="0.00 0.00 1080.00 1080.00">
<path fill="#000000" d="
  M 586.00 1080.00
  L 493.15 1080.00
  Q 489.84 1079.63 486.93 1078.09
  Q 464.73 1066.41 437.53 1051.94
  Q 414.02 1039.43 395.55 1028.38
  Q 340.68 995.56 333.66 991.24
  Q 303.08 972.45 283.95 958.12
  C 270.57 948.10 258.40 937.25 246.70 925.61
  Q 238.61 917.55 225.94 904.09
  Q 203.99 880.78 182.56 850.65
  Q 163.89 824.41 155.99 811.71
  Q 138.40 783.45 130.11 769.27
  Q 92.66 705.19 78.09 633.71
  Q 74.06 613.97 70.98 591.50
  Q 68.45 573.01 67.40 555.31
  C 66.72 543.76 66.02 531.89 66.01 520.52
  Q 65.98 492.38 66.01 463.39
  Q 66.02 453.62 66.38 443.37
  Q 66.95 427.31 67.94 406.37
  Q 69.14 381.00 72.26 350.76
  Q 74.95 324.63 78.39 291.99
  Q 81.54 262.14 84.08 226.08
  C 84.23 223.90 83.95 221.65 84.26 219.59
  Q 85.02 214.58 85.03 209.11
  Q 85.03 205.47 85.86 201.50
  Q 86.64 197.77 87.43 193.77
  C 88.14 190.14 90.46 187.77 92.36 184.79
  C 93.88 182.41 96.01 180.61 97.96 178.61
  Q 99.02 177.53 100.28 176.74
  C 104.28 174.23 108.01 171.40 112.42 169.57
  Q 116.26 167.97 118.39 167.49
  Q 123.69 166.30 130.31 165.64
  Q 142.76 164.39 156.07 162.86
  Q 177.35 160.42 195.72 156.40
  Q 206.73 153.99 222.04 150.19
  C 244.52 144.60 266.68 137.61 288.57 129.84
  Q 299.68 125.90 313.78 119.78
  Q 335.85 110.18 355.30 101.97
  C 374.26 93.96 392.62 85.58 411.88 76.93
  Q 421.06 72.81 429.99 68.46
  Q 457.61 54.99 470.38 47.58
  Q 488.70 36.94 506.81 26.33
  Q 508.98 25.06 513.64 21.16
  Q 524.12 12.38 537.89 11.83
  C 549.27 11.38 558.90 14.65 567.20 21.78
  Q 570.84 24.91 574.76 27.22
  Q 601.49 43.01 612.09 48.93
  C 629.29 58.51 648.69 68.16 667.58 76.67
  Q 694.84 88.94 715.53 97.93
  Q 733.90 105.91 752.21 113.83
  Q 768.82 121.02 781.17 125.93
  Q 790.68 129.72 799.96 132.83
  Q 830.71 143.16 850.06 148.21
  Q 868.74 153.09 885.54 156.74
  Q 895.60 158.92 904.03 160.13
  Q 926.58 163.36 954.90 166.28
  Q 965.77 167.40 974.68 173.49
  Q 976.74 174.90 979.05 176.30
  Q 981.08 177.53 982.62 179.17
  Q 983.81 180.43 985.01 181.55
  C 987.13 183.52 988.68 186.41 990.39 188.76
  Q 992.08 191.08 992.61 193.88
  Q 993.45 198.25 994.38 202.73
  Q 995.08 206.12 994.97 209.35
  C 994.82 213.99 995.88 218.14 995.82 222.59
  Q 995.79 224.75 995.95 226.90
  Q 998.97 267.19 1001.65 292.41
  Q 1005.17 325.54 1008.35 356.19
  Q 1009.42 366.59 1011.31 393.53
  C 1012.47 410.22 1013.02 426.51 1013.65 443.76
  Q 1013.98 452.88 1014.02 463.68
  Q 1014.15 496.29 1013.83 528.89
  Q 1013.64 547.50 1010.79 576.44
  Q 1008.28 601.99 1000.97 638.34
  Q 999.16 647.30 996.23 658.31
  Q 982.65 709.26 958.01 754.67
  C 948.58 772.05 938.05 789.19 927.49 806.28
  Q 921.96 815.25 916.77 822.88
  Q 893.92 856.51 880.05 873.87
  Q 851.57 909.52 817.55 940.51
  Q 807.17 949.97 793.44 960.08
  Q 773.69 974.64 745.04 992.02
  Q 717.73 1008.60 688.50 1026.03
  C 659.20 1043.52 627.62 1059.82 596.86 1076.09
  Q 590.34 1079.54 586.00 1080.00
  Z
  M 455.57 516.18
  Q 475.46 516.21 499.25 516.93
  Q 506.99 517.17 514.99 516.85
  A 1.05 1.05 0.0 0 0 516.00 515.80
  Q 516.00 322.95 516.00 129.97
  Q 516.00 126.23 516.21 122.46
  Q 516.43 118.37 516.13 114.97
  Q 515.93 112.79 516.46 110.04
  A 1.26 1.25 81.7 0 0 514.65 108.69
  C 510.36 110.91 506.27 113.44 502.02 115.72
  C 487.20 123.70 472.45 131.52 457.10 138.64
  Q 421.30 155.25 385.02 170.78
  Q 364.21 179.69 345.13 187.97
  Q 334.51 192.58 326.66 195.58
  Q 281.63 212.75 239.80 223.07
  Q 233.99 224.50 218.02 228.27
  C 198.62 232.84 178.87 235.74 159.00 237.98
  A 1.19 1.18 86.0 0 0 157.95 239.19
  Q 158.06 242.67 157.83 245.76
  Q 154.82 286.11 148.45 343.54
  Q 144.66 377.69 143.06 407.50
  Q 142.05 426.32 141.34 446.01
  C 140.56 468.04 141.00 490.74 141.02 511.82
  C 141.02 512.81 141.39 513.78 141.65 514.74
  A 1.71 1.70 -7.5 0 0 143.30 516.00
  Q 286.37 515.94 446.00 516.17
  Q 450.79 516.18 455.57 516.18
  Z
  M 564.75 515.35
  Q 564.33 515.92 564.57 516.48
  Q 564.80 517.03 565.39 517.03
  L 627.60 516.15
  Q 638.23 516.00 648.86 516.00
  L 938.06 516.00
  A 0.89 0.88 0.0 0 0 938.95 515.12
  Q 939.11 487.55 938.94 459.39
  Q 938.78 434.65 935.65 387.48
  C 934.63 372.10 932.95 355.80 931.26 340.74
  Q 926.01 293.73 922.40 249.76
  Q 921.97 244.61 921.99 239.13
  A 1.20 1.19 -86.8 0 0 920.93 237.94
  C 901.98 235.86 882.58 233.07 863.82 228.71
  Q 846.52 224.70 835.02 221.76
  Q 798.89 212.51 761.51 198.69
  Q 748.72 193.96 735.52 188.27
  Q 711.77 178.03 688.86 168.12
  Q 664.27 157.47 640.13 146.59
  Q 609.24 132.67 579.41 116.60
  Q 572.30 112.77 566.68 109.22
  A 1.09 1.08 32.6 0 0 565.20 109.54
  Q 564.99 109.87 564.99 110.26
  Q 565.02 273.45 564.99 514.62
  A 1.26 1.22 -27.8 0 1 564.75 515.35
  Z
  M 515.18 603.05
  Q 515.25 598.30 515.26 593.04
  Q 515.28 585.61 515.78 577.79
  C 515.87 576.29 515.41 575.03 515.64 573.59
  Q 515.72 573.12 515.26 572.95
  Q 513.77 572.40 512.30 572.67
  C 510.99 572.91 509.70 572.40 508.33 572.40
  Q 501.30 572.43 494.27 572.24
  Q 485.23 572.00 480.22 572.00
  Q 312.85 572.00 145.16 572.00
  A 1.21 1.20 -12.4 0 0 144.06 573.71
  C 144.98 575.73 144.79 577.74 145.06 579.88
  Q 148.07 603.28 152.73 624.49
  C 158.36 650.06 166.83 675.66 178.21 699.50
  C 189.79 723.75 203.49 746.13 217.56 768.81
  Q 229.88 788.68 249.71 815.52
  Q 264.36 835.35 278.50 850.56
  C 295.55 868.90 312.95 886.90 333.46 901.53
  Q 351.21 914.19 367.01 923.77
  Q 390.46 937.97 417.13 954.06
  Q 451.35 974.70 481.94 990.75
  Q 498.19 999.28 514.32 1007.76
  A 0.47 0.47 0.0 0 0 515.01 1007.34
  Q 514.99 823.86 515.01 626.75
  A 167.59 16.96 -89.6 0 1 515.18 603.05
  Z
  M 932.46 573.13
  Q 932.31 572.35 931.26 572.29
  Q 926.75 572.05 922.25 572.05
  Q 776.87 571.98 601.00 572.19
  Q 587.94 572.20 573.00 572.29
  Q 572.32 572.29 571.66 572.27
  C 569.96 572.22 568.88 572.97 566.97 572.62
  C 565.74 572.39 564.00 572.73 564.00 574.33
  Q 564.00 790.85 564.00 1007.07
  A 0.82 0.82 0.0 0 0 565.13 1007.83
  Q 568.69 1006.35 571.73 1004.68
  C 583.90 998.00 596.83 991.63 609.17 984.80
  C 619.13 979.29 629.07 974.02 638.74 968.32
  Q 678.93 944.66 714.49 922.83
  Q 732.40 911.83 746.27 901.77
  Q 758.00 893.26 765.56 886.50
  C 778.42 875.01 790.54 862.56 802.08 850.01
  Q 814.67 836.31 828.27 818.20
  Q 849.03 790.53 863.15 767.77
  Q 868.23 759.58 879.72 740.52
  Q 894.20 716.51 905.17 692.08
  Q 918.86 661.60 927.08 625.17
  Q 931.83 604.17 934.43 583.13
  C 934.79 580.28 934.88 577.17 935.50 574.53
  Q 935.63 573.97 935.07 573.91
  L 933.05 573.68
  Q 932.55 573.62 932.46 573.13
  Z"
/>
</svg>
