<?xml version="1.0" encoding="UTF-8" standalone="no"?>
<!DOCTYPE svg PUBLIC "-//W3C//DTD SVG 1.1//EN" "http://www.w3.org/Graphics/SVG/1.1/DTD/svg11.dtd">
<svg xmlns="http://www.w3.org/2000/svg" version="1.1" viewBox="0.00 0.00 1100.00 1100.00">
<g stroke-width="2.00" fill="none" stroke-linecap="butt">
<!-- <path stroke="#9e9e9e" vector-effect="non-scaling-stroke" d="
  M 609.73 162.50
  C 612.00 166.77 613.62 171.88 615.06 176.43
  Q 617.52 184.17 617.78 191.27
  Q 618.06 198.66 618.06 206.15
  Q 617.99 381.52 618.05 547.57
  C 618.05 548.90 618.61 550.68 619.58 551.58
  Q 634.23 565.20 649.29 578.67
  Q 650.63 579.87 652.16 581.14
  Q 652.85 581.71 652.71 580.82
  C 652.56 579.89 652.25 579.16 652.25 578.19
  Q 652.26 390.92 652.25 203.65
  C 652.25 198.34 651.61 193.08 651.15 187.81
  Q 650.62 181.71 649.41 175.99
  Q 642.62 143.72 620.49 119.77
  Q 610.63 109.09 599.85 101.80
  Q 578.83 87.61 552.74 82.52
  Q 543.51 80.72 529.29 80.62
  C 524.68 80.59 519.82 81.55 515.19 82.09
  C 490.58 84.94 464.76 98.24 447.25 116.07
  Q 421.69 142.09 414.67 178.05
  Q 412.82 187.52 412.85 195.90
  Q 413.13 270.36 412.66 360.20
  Q 412.64 362.53 414.45 364.17
  Q 430.00 378.25 445.60 392.68
  Q 446.33 393.36 446.30 392.36
  C 446.25 391.13 445.96 389.89 445.96 388.68
  Q 446.10 298.02 445.92 206.40
  Q 445.89 194.85 446.87 188.05
  Q 449.81 167.67 461.69 150.97
  Q 479.62 125.76 509.01 117.61
  Q 518.28 115.04 527.33 114.64
  Q 537.64 114.18 546.13 115.54
  C 573.74 119.95 596.43 137.42 609.73 162.50"
/> -->
<!-- <path stroke="#9e9e9e" vector-effect="non-scaling-stroke" d="
  M 731.77 791.16
  A 0.36 0.36 0.0 0 1 732.37 791.03
  C 740.21 798.91 748.20 805.89 756.51 813.70
  Q 778.18 834.07 799.12 853.17
  C 801.54 855.37 803.74 857.82 806.20 859.91
  Q 808.98 862.29 811.64 864.81
  C 819.50 872.26 825.50 877.46 832.00 883.83
  C 835.97 887.72 840.11 891.36 844.25 895.20
  Q 850.82 901.31 860.50 902.62
  Q 876.58 904.79 887.35 893.52
  Q 898.71 881.62 895.21 864.73
  Q 893.76 857.70 889.64 852.86
  Q 884.49 846.81 876.66 840.04
  C 874.52 838.19 872.60 836.15 870.51 834.22
  Q 849.71 814.96 830.62 797.33
  Q 812.28 780.40 795.88 764.96
  C 793.21 762.44 790.31 760.25 787.81 757.60
  Q 785.05 754.67 781.92 752.09
  C 779.01 749.70 776.52 746.85 773.68 744.29
  Q 766.63 737.96 759.44 731.29
  Q 720.18 694.87 681.32 658.68
  Q 678.48 656.03 675.75 653.49
  Q 661.84 640.53 647.67 627.31
  Q 640.32 620.45 631.01 612.29
  C 627.73 609.42 624.86 606.16 621.58 603.38
  C 618.89 601.11 616.46 598.54 613.85 596.14
  Q 595.25 579.03 576.18 561.04
  Q 574.36 559.32 572.50 557.79
  C 569.35 555.20 566.67 552.18 563.65 549.43
  Q 558.63 544.87 553.54 540.31
  C 550.79 537.86 548.39 535.11 545.56 532.74
  Q 543.36 530.91 541.26 528.89
  Q 539.12 526.85 537.05 524.91
  Q 530.57 518.83 524.31 512.93
  Q 518.37 507.33 512.09 501.66
  Q 506.23 496.38 499.85 490.37
  Q 488.06 479.28 476.22 468.48
  C 473.79 466.26 471.60 463.76 469.06 461.69
  C 465.42 458.71 462.31 455.23 458.80 452.23
  Q 456.28 450.07 454.01 447.88
  Q 442.85 437.07 430.37 426.03
  C 427.34 423.35 424.72 420.43 421.72 417.83
  Q 418.20 414.78 415.06 411.79
  Q 404.96 402.17 392.00 390.20
  Q 363.32 363.73 332.55 335.09
  C 330.18 332.89 327.98 330.53 325.47 328.47
  C 322.06 325.68 319.39 322.52 315.99 319.75
  C 312.49 316.90 309.54 313.51 306.16 310.55
  C 297.27 302.75 288.83 294.53 280.34 286.68
  Q 258.50 266.50 235.13 244.53
  Q 227.18 237.06 223.44 235.03
  C 212.12 228.89 199.38 229.86 188.86 237.54
  C 180.59 243.59 175.55 255.95 177.02 265.72
  C 178.93 278.35 185.40 284.16 194.73 292.62
  Q 217.53 313.28 239.86 334.42
  C 242.73 337.14 245.73 339.55 248.68 342.37
  Q 259.48 352.73 272.90 365.06
  Q 306.99 396.39 353.69 440.04
  Q 361.59 447.42 367.61 452.74
  Q 370.87 455.61 373.71 458.47
  Q 376.63 461.40 379.68 464.19
  Q 394.54 477.75 410.58 492.65
  Q 412.62 494.55 412.65 497.21
  Q 413.09 551.06 412.70 656.06
  Q 412.69 658.25 411.03 659.54
  Q 348.48 707.97 333.52 785.02
  Q 332.08 792.41 331.16 802.11
  Q 330.07 813.44 330.13 821.03
  Q 330.29 843.33 334.84 863.63
  Q 338.75 881.05 347.30 901.73
  Q 351.06 910.83 356.10 919.44
  Q 374.55 950.92 398.38 972.03
  Q 440.84 1009.64 498.82 1020.17
  C 505.93 1021.46 513.13 1021.85 520.29 1022.65
  C 531.04 1023.85 541.79 1022.92 554.34 1021.67
  C 578.63 1019.23 602.02 1011.77 624.72 1000.25
  Q 650.43 987.21 671.97 966.41
  Q 713.15 926.62 727.49 871.18
  C 729.34 864.05 730.88 856.62 731.89 849.22
  Q 732.74 843.00 733.38 836.76
  Q 734.57 825.25 733.62 807.35
  Q 733.23 799.92 731.71 792.52
  Q 731.56 791.79 731.77 791.16"
/> -->
<!-- <path stroke="#9e9e9e" vector-effect="non-scaling-stroke" d="
  M 565.34 640.42
  Q 565.52 682.03 565.44 720.32
  A 1.11 1.10 9.8 0 0 566.19 721.38
  Q 584.07 727.57 598.04 738.64
  Q 600.71 740.75 603.14 743.23
  C 607.28 747.44 611.83 751.60 615.35 756.18
  Q 628.10 772.79 633.59 791.87
  Q 638.05 807.39 637.79 823.06
  Q 637.69 829.43 636.69 837.19
  Q 636.29 840.35 635.53 843.23
  C 634.24 848.11 633.08 852.96 631.34 857.65
  Q 618.66 891.74 588.03 910.90
  C 573.40 920.06 557.03 925.70 539.98 926.52
  Q 531.03 926.95 522.85 926.39
  Q 499.58 924.82 478.57 912.21
  Q 451.24 895.81 437.35 867.82
  Q 431.94 856.93 429.42 846.06
  Q 427.20 836.52 426.89 826.62
  Q 426.52 815.00 427.54 806.80
  Q 430.19 785.40 442.67 765.33
  Q 462.51 733.44 499.39 720.94
  A 0.22 0.21 -9.7 0 0 499.54 720.74
  Q 499.45 647.95 499.53 577.48
  Q 499.54 576.09 498.69 574.93
  C 495.77 570.90 491.78 568.65 488.51 565.10
  C 485.51 561.85 481.94 559.38 478.50 555.73
  Q 476.48 553.59 474.42 551.89
  C 471.22 549.24 468.50 546.20 465.43 543.48
  Q 455.79 534.95 446.62 526.08
  Q 445.49 524.99 445.72 526.55
  Q 446.00 528.45 446.00 530.28
  Q 445.93 601.84 446.01 674.79
  Q 446.01 675.63 445.63 676.41
  Q 445.42 676.84 445.01 677.10
  Q 406.63 701.40 386.24 737.32
  Q 369.27 767.20 365.32 800.43
  Q 364.59 806.64 364.18 813.67
  Q 363.79 820.44 364.04 826.88
  C 365.40 861.26 376.55 893.72 396.77 920.71
  Q 432.65 968.60 491.26 984.30
  C 496.15 985.61 501.16 986.37 506.08 987.29
  C 513.54 988.70 521.43 988.92 529.04 989.19
  Q 547.57 989.84 565.96 985.88
  C 604.02 977.69 637.71 957.58 662.21 927.63
  Q 689.52 894.25 697.69 851.35
  Q 698.56 846.82 698.95 842.56
  C 699.54 836.23 700.49 830.12 700.65 823.75
  C 700.84 815.85 699.84 807.97 699.00 800.35
  C 698.11 792.25 696.25 783.33 694.16 775.75
  C 691.66 766.68 688.16 756.98 684.21 749.19
  Q 681.44 743.73 675.30 738.15
  C 670.42 733.70 665.56 729.45 660.81 725.00
  Q 646.87 711.96 633.43 699.49
  Q 612.05 679.65 596.69 665.55
  C 594.09 663.16 591.68 660.44 588.98 658.15
  Q 585.93 655.55 583.10 652.72
  C 580.16 649.79 576.88 647.17 573.95 644.24
  Q 570.31 640.59 565.01 636.78
  Q 564.53 636.43 564.72 636.99
  Q 565.34 638.75 565.34 640.42"
/> -->
</g>
<!-- <path fill="#ffffff" d="
  M 0.00 0.00
  L 1100.00 0.00
  L 1100.00 1100.00
  L 0.00 1100.00
  L 0.00 0.00
  Z
  M 609.73 162.50
  C 612.00 166.77 613.62 171.88 615.06 176.43
  Q 617.52 184.17 617.78 191.27
  Q 618.06 198.66 618.06 206.15
  Q 617.99 381.52 618.05 547.57
  C 618.05 548.90 618.61 550.68 619.58 551.58
  Q 634.23 565.20 649.29 578.67
  Q 650.63 579.87 652.16 581.14
  Q 652.85 581.71 652.71 580.82
  C 652.56 579.89 652.25 579.16 652.25 578.19
  Q 652.26 390.92 652.25 203.65
  C 652.25 198.34 651.61 193.08 651.15 187.81
  Q 650.62 181.71 649.41 175.99
  Q 642.62 143.72 620.49 119.77
  Q 610.63 109.09 599.85 101.80
  Q 578.83 87.61 552.74 82.52
  Q 543.51 80.72 529.29 80.62
  C 524.68 80.59 519.82 81.55 515.19 82.09
  C 490.58 84.94 464.76 98.24 447.25 116.07
  Q 421.69 142.09 414.67 178.05
  Q 412.82 187.52 412.85 195.90
  Q 413.13 270.36 412.66 360.20
  Q 412.64 362.53 414.45 364.17
  Q 430.00 378.25 445.60 392.68
  Q 446.33 393.36 446.30 392.36
  C 446.25 391.13 445.96 389.89 445.96 388.68
  Q 446.10 298.02 445.92 206.40
  Q 445.89 194.85 446.87 188.05
  Q 449.81 167.67 461.69 150.97
  Q 479.62 125.76 509.01 117.61
  Q 518.28 115.04 527.33 114.64
  Q 537.64 114.18 546.13 115.54
  C 573.74 119.95 596.43 137.42 609.73 162.50
  Z
  M 731.77 791.16
  A 0.36 0.36 0.0 0 1 732.37 791.03
  C 740.21 798.91 748.20 805.89 756.51 813.70
  Q 778.18 834.07 799.12 853.17
  C 801.54 855.37 803.74 857.82 806.20 859.91
  Q 808.98 862.29 811.64 864.81
  C 819.50 872.26 825.50 877.46 832.00 883.83
  C 835.97 887.72 840.11 891.36 844.25 895.20
  Q 850.82 901.31 860.50 902.62
  Q 876.58 904.79 887.35 893.52
  Q 898.71 881.62 895.21 864.73
  Q 893.76 857.70 889.64 852.86
  Q 884.49 846.81 876.66 840.04
  C 874.52 838.19 872.60 836.15 870.51 834.22
  Q 849.71 814.96 830.62 797.33
  Q 812.28 780.40 795.88 764.96
  C 793.21 762.44 790.31 760.25 787.81 757.60
  Q 785.05 754.67 781.92 752.09
  C 779.01 749.70 776.52 746.85 773.68 744.29
  Q 766.63 737.96 759.44 731.29
  Q 720.18 694.87 681.32 658.68
  Q 678.48 656.03 675.75 653.49
  Q 661.84 640.53 647.67 627.31
  Q 640.32 620.45 631.01 612.29
  C 627.73 609.42 624.86 606.16 621.58 603.38
  C 618.89 601.11 616.46 598.54 613.85 596.14
  Q 595.25 579.03 576.18 561.04
  Q 574.36 559.32 572.50 557.79
  C 569.35 555.20 566.67 552.18 563.65 549.43
  Q 558.63 544.87 553.54 540.31
  C 550.79 537.86 548.39 535.11 545.56 532.74
  Q 543.36 530.91 541.26 528.89
  Q 539.12 526.85 537.05 524.91
  Q 530.57 518.83 524.31 512.93
  Q 518.37 507.33 512.09 501.66
  Q 506.23 496.38 499.85 490.37
  Q 488.06 479.28 476.22 468.48
  C 473.79 466.26 471.60 463.76 469.06 461.69
  C 465.42 458.71 462.31 455.23 458.80 452.23
  Q 456.28 450.07 454.01 447.88
  Q 442.85 437.07 430.37 426.03
  C 427.34 423.35 424.72 420.43 421.72 417.83
  Q 418.20 414.78 415.06 411.79
  Q 404.96 402.17 392.00 390.20
  Q 363.32 363.73 332.55 335.09
  C 330.18 332.89 327.98 330.53 325.47 328.47
  C 322.06 325.68 319.39 322.52 315.99 319.75
  C 312.49 316.90 309.54 313.51 306.16 310.55
  C 297.27 302.75 288.83 294.53 280.34 286.68
  Q 258.50 266.50 235.13 244.53
  Q 227.18 237.06 223.44 235.03
  C 212.12 228.89 199.38 229.86 188.86 237.54
  C 180.59 243.59 175.55 255.95 177.02 265.72
  C 178.93 278.35 185.40 284.16 194.73 292.62
  Q 217.53 313.28 239.86 334.42
  C 242.73 337.14 245.73 339.55 248.68 342.37
  Q 259.48 352.73 272.90 365.06
  Q 306.99 396.39 353.69 440.04
  Q 361.59 447.42 367.61 452.74
  Q 370.87 455.61 373.71 458.47
  Q 376.63 461.40 379.68 464.19
  Q 394.54 477.75 410.58 492.65
  Q 412.62 494.55 412.65 497.21
  Q 413.09 551.06 412.70 656.06
  Q 412.69 658.25 411.03 659.54
  Q 348.48 707.97 333.52 785.02
  Q 332.08 792.41 331.16 802.11
  Q 330.07 813.44 330.13 821.03
  Q 330.29 843.33 334.84 863.63
  Q 338.75 881.05 347.30 901.73
  Q 351.06 910.83 356.10 919.44
  Q 374.55 950.92 398.38 972.03
  Q 440.84 1009.64 498.82 1020.17
  C 505.93 1021.46 513.13 1021.85 520.29 1022.65
  C 531.04 1023.85 541.79 1022.92 554.34 1021.67
  C 578.63 1019.23 602.02 1011.77 624.72 1000.25
  Q 650.43 987.21 671.97 966.41
  Q 713.15 926.62 727.49 871.18
  C 729.34 864.05 730.88 856.62 731.89 849.22
  Q 732.74 843.00 733.38 836.76
  Q 734.57 825.25 733.62 807.35
  Q 733.23 799.92 731.71 792.52
  Q 731.56 791.79 731.77 791.16
  Z"
/> -->
<path fill="#f0f0f0" d="
  M 609.73 162.50
  C 596.43 137.42 573.74 119.95 546.13 115.54
  Q 537.64 114.18 527.33 114.64
  Q 518.28 115.04 509.01 117.61
  Q 479.62 125.76 461.69 150.97
  Q 449.81 167.67 446.87 188.05
  Q 445.89 194.85 445.92 206.40
  Q 446.10 298.02 445.96 388.68
  C 445.96 389.89 446.25 391.13 446.30 392.36
  Q 446.33 393.36 445.60 392.68
  Q 430.00 378.25 414.45 364.17
  Q 412.64 362.53 412.66 360.20
  Q 413.13 270.36 412.85 195.90
  Q 412.82 187.52 414.67 178.05
  Q 421.69 142.09 447.25 116.07
  C 464.76 98.24 490.58 84.94 515.19 82.09
  C 519.82 81.55 524.68 80.59 529.29 80.62
  Q 543.51 80.72 552.74 82.52
  Q 578.83 87.61 599.85 101.80
  Q 610.63 109.09 620.49 119.77
  Q 642.62 143.72 649.41 175.99
  Q 650.62 181.71 651.15 187.81
  C 651.61 193.08 652.25 198.34 652.25 203.65
  Q 652.26 390.92 652.25 578.19
  C 652.25 579.16 652.56 579.89 652.71 580.82
  Q 652.85 581.71 652.16 581.14
  Q 650.63 579.87 649.29 578.67
  Q 634.23 565.20 619.58 551.58
  C 618.61 550.68 618.05 548.90 618.05 547.57
  Q 617.99 381.52 618.06 206.15
  Q 618.06 198.66 617.78 191.27
  Q 617.52 184.17 615.06 176.43
  C 613.62 171.88 612.00 166.77 609.73 162.50
  Z"
/>
<path fill="#f0f0f0" d="
  M 731.77 791.16
  Q 731.56 791.79 731.71 792.52
  Q 733.23 799.92 733.62 807.35
  Q 734.57 825.25 733.38 836.76
  Q 732.74 843.00 731.89 849.22
  C 730.88 856.62 729.34 864.05 727.49 871.18
  Q 713.15 926.62 671.97 966.41
  Q 650.43 987.21 624.72 1000.25
  C 602.02 1011.77 578.63 1019.23 554.34 1021.67
  C 541.79 1022.92 531.04 1023.85 520.29 1022.65
  C 513.13 1021.85 505.93 1021.46 498.82 1020.17
  Q 440.84 1009.64 398.38 972.03
  Q 374.55 950.92 356.10 919.44
  Q 351.06 910.83 347.30 901.73
  Q 338.75 881.05 334.84 863.63
  Q 330.29 843.33 330.13 821.03
  Q 330.07 813.44 331.16 802.11
  Q 332.08 792.41 333.52 785.02
  Q 348.48 707.97 411.03 659.54
  Q 412.69 658.25 412.70 656.06
  Q 413.09 551.06 412.65 497.21
  Q 412.62 494.55 410.58 492.65
  Q 394.54 477.75 379.68 464.19
  Q 376.63 461.40 373.71 458.47
  Q 370.87 455.61 367.61 452.74
  Q 361.59 447.42 353.69 440.04
  Q 306.99 396.39 272.90 365.06
  Q 259.48 352.73 248.68 342.37
  C 245.73 339.55 242.73 337.14 239.86 334.42
  Q 217.53 313.28 194.73 292.62
  C 185.40 284.16 178.93 278.35 177.02 265.72
  C 175.55 255.95 180.59 243.59 188.86 237.54
  C 199.38 229.86 212.12 228.89 223.44 235.03
  Q 227.18 237.06 235.13 244.53
  Q 258.50 266.50 280.34 286.68
  C 288.83 294.53 297.27 302.75 306.16 310.55
  C 309.54 313.51 312.49 316.90 315.99 319.75
  C 319.39 322.52 322.06 325.68 325.47 328.47
  C 327.98 330.53 330.18 332.89 332.55 335.09
  Q 363.32 363.73 392.00 390.20
  Q 404.96 402.17 415.06 411.79
  Q 418.20 414.78 421.72 417.83
  C 424.72 420.43 427.34 423.35 430.37 426.03
  Q 442.85 437.07 454.01 447.88
  Q 456.28 450.07 458.80 452.23
  C 462.31 455.23 465.42 458.71 469.06 461.69
  C 471.60 463.76 473.79 466.26 476.22 468.48
  Q 488.06 479.28 499.85 490.37
  Q 506.23 496.38 512.09 501.66
  Q 518.37 507.33 524.31 512.93
  Q 530.57 518.83 537.05 524.91
  Q 539.12 526.85 541.26 528.89
  Q 543.36 530.91 545.56 532.74
  C 548.39 535.11 550.79 537.86 553.54 540.31
  Q 558.63 544.87 563.65 549.43
  C 566.67 552.18 569.35 555.20 572.50 557.79
  Q 574.36 559.32 576.18 561.04
  Q 595.25 579.03 613.85 596.14
  C 616.46 598.54 618.89 601.11 621.58 603.38
  C 624.86 606.16 627.73 609.42 631.01 612.29
  Q 640.32 620.45 647.67 627.31
  Q 661.84 640.53 675.75 653.49
  Q 678.48 656.03 681.32 658.68
  Q 720.18 694.87 759.44 731.29
  Q 766.63 737.96 773.68 744.29
  C 776.52 746.85 779.01 749.70 781.92 752.09
  Q 785.05 754.67 787.81 757.60
  C 790.31 760.25 793.21 762.44 795.88 764.96
  Q 812.28 780.40 830.62 797.33
  Q 849.71 814.96 870.51 834.22
  C 872.60 836.15 874.52 838.19 876.66 840.04
  Q 884.49 846.81 889.64 852.86
  Q 893.76 857.70 895.21 864.73
  Q 898.71 881.62 887.35 893.52
  Q 876.58 904.79 860.50 902.62
  Q 850.82 901.31 844.25 895.20
  C 840.11 891.36 835.97 887.72 832.00 883.83
  C 825.50 877.46 819.50 872.26 811.64 864.81
  Q 808.98 862.29 806.20 859.91
  C 803.74 857.82 801.54 855.37 799.12 853.17
  Q 778.18 834.07 756.51 813.70
  C 748.20 805.89 740.21 798.91 732.37 791.03
  A 0.36 0.36 0.0 0 0 731.77 791.16
  Z
  M 565.34 640.42
  Q 565.52 682.03 565.44 720.32
  A 1.11 1.10 9.8 0 0 566.19 721.38
  Q 584.07 727.57 598.04 738.64
  Q 600.71 740.75 603.14 743.23
  C 607.28 747.44 611.83 751.60 615.35 756.18
  Q 628.10 772.79 633.59 791.87
  Q 638.05 807.39 637.79 823.06
  Q 637.69 829.43 636.69 837.19
  Q 636.29 840.35 635.53 843.23
  C 634.24 848.11 633.08 852.96 631.34 857.65
  Q 618.66 891.74 588.03 910.90
  C 573.40 920.06 557.03 925.70 539.98 926.52
  Q 531.03 926.95 522.85 926.39
  Q 499.58 924.82 478.57 912.21
  Q 451.24 895.81 437.35 867.82
  Q 431.94 856.93 429.42 846.06
  Q 427.20 836.52 426.89 826.62
  Q 426.52 815.00 427.54 806.80
  Q 430.19 785.40 442.67 765.33
  Q 462.51 733.44 499.39 720.94
  A 0.22 0.21 -9.7 0 0 499.54 720.74
  Q 499.45 647.95 499.53 577.48
  Q 499.54 576.09 498.69 574.93
  C 495.77 570.90 491.78 568.65 488.51 565.10
  C 485.51 561.85 481.94 559.38 478.50 555.73
  Q 476.48 553.59 474.42 551.89
  C 471.22 549.24 468.50 546.20 465.43 543.48
  Q 455.79 534.95 446.62 526.08
  Q 445.49 524.99 445.72 526.55
  Q 446.00 528.45 446.00 530.28
  Q 445.93 601.84 446.01 674.79
  Q 446.01 675.63 445.63 676.41
  Q 445.42 676.84 445.01 677.10
  Q 406.63 701.40 386.24 737.32
  Q 369.27 767.20 365.32 800.43
  Q 364.59 806.64 364.18 813.67
  Q 363.79 820.44 364.04 826.88
  C 365.40 861.26 376.55 893.72 396.77 920.71
  Q 432.65 968.60 491.26 984.30
  C 496.15 985.61 501.16 986.37 506.08 987.29
  C 513.54 988.70 521.43 988.92 529.04 989.19
  Q 547.57 989.84 565.96 985.88
  C 604.02 977.69 637.71 957.58 662.21 927.63
  Q 689.52 894.25 697.69 851.35
  Q 698.56 846.82 698.95 842.56
  C 699.54 836.23 700.49 830.12 700.65 823.75
  C 700.84 815.85 699.84 807.97 699.00 800.35
  C 698.11 792.25 696.25 783.33 694.16 775.75
  C 691.66 766.68 688.16 756.98 684.21 749.19
  Q 681.44 743.73 675.30 738.15
  C 670.42 733.70 665.56 729.45 660.81 725.00
  Q 646.87 711.96 633.43 699.49
  Q 612.05 679.65 596.69 665.55
  C 594.09 663.16 591.68 660.44 588.98 658.15
  Q 585.93 655.55 583.10 652.72
  C 580.16 649.79 576.88 647.17 573.95 644.24
  Q 570.31 640.59 565.01 636.78
  Q 564.53 636.43 564.72 636.99
  Q 565.34 638.75 565.34 640.42
  Z"
/>
<!-- <path fill="#ffffff" d="
  M 565.34 640.42
  Q 565.34 638.75 564.72 636.99
  Q 564.53 636.43 565.01 636.78
  Q 570.31 640.59 573.95 644.24
  C 576.88 647.17 580.16 649.79 583.10 652.72
  Q 585.93 655.55 588.98 658.15
  C 591.68 660.44 594.09 663.16 596.69 665.55
  Q 612.05 679.65 633.43 699.49
  Q 646.87 711.96 660.81 725.00
  C 665.56 729.45 670.42 733.70 675.30 738.15
  Q 681.44 743.73 684.21 749.19
  C 688.16 756.98 691.66 766.68 694.16 775.75
  C 696.25 783.33 698.11 792.25 699.00 800.35
  C 699.84 807.97 700.84 815.85 700.65 823.75
  C 700.49 830.12 699.54 836.23 698.95 842.56
  Q 698.56 846.82 697.69 851.35
  Q 689.52 894.25 662.21 927.63
  C 637.71 957.58 604.02 977.69 565.96 985.88
  Q 547.57 989.84 529.04 989.19
  C 521.43 988.92 513.54 988.70 506.08 987.29
  C 501.16 986.37 496.15 985.61 491.26 984.30
  Q 432.65 968.60 396.77 920.71
  C 376.55 893.72 365.40 861.26 364.04 826.88
  Q 363.79 820.44 364.18 813.67
  Q 364.59 806.64 365.32 800.43
  Q 369.27 767.20 386.24 737.32
  Q 406.63 701.40 445.01 677.10
  Q 445.42 676.84 445.63 676.41
  Q 446.01 675.63 446.01 674.79
  Q 445.93 601.84 446.00 530.28
  Q 446.00 528.45 445.72 526.55
  Q 445.49 524.99 446.62 526.08
  Q 455.79 534.95 465.43 543.48
  C 468.50 546.20 471.22 549.24 474.42 551.89
  Q 476.48 553.59 478.50 555.73
  C 481.94 559.38 485.51 561.85 488.51 565.10
  C 491.78 568.65 495.77 570.90 498.69 574.93
  Q 499.54 576.09 499.53 577.48
  Q 499.45 647.95 499.54 720.74
  A 0.22 0.21 -9.7 0 1 499.39 720.94
  Q 462.51 733.44 442.67 765.33
  Q 430.19 785.40 427.54 806.80
  Q 426.52 815.00 426.89 826.62
  Q 427.20 836.52 429.42 846.06
  Q 431.94 856.93 437.35 867.82
  Q 451.24 895.81 478.57 912.21
  Q 499.58 924.82 522.85 926.39
  Q 531.03 926.95 539.98 926.52
  C 557.03 925.70 573.40 920.06 588.03 910.90
  Q 618.66 891.74 631.34 857.65
  C 633.08 852.96 634.24 848.11 635.53 843.23
  Q 636.29 840.35 636.69 837.19
  Q 637.69 829.43 637.79 823.06
  Q 638.05 807.39 633.59 791.87
  Q 628.10 772.79 615.35 756.18
  C 611.83 751.60 607.28 747.44 603.14 743.23
  Q 600.71 740.75 598.04 738.64
  Q 584.07 727.57 566.19 721.38
  A 1.11 1.10 9.8 0 1 565.44 720.32
  Q 565.52 682.03 565.34 640.42
  Z"
/> -->
</svg>
